<?xml version="1.0" standalone="no"?>
<!DOCTYPE svg PUBLIC "-//W3C//DTD SVG 20010904//EN"
 "http://www.w3.org/TR/2001/REC-SVG-20010904/DTD/svg10.dtd">
<svg version="1.0" xmlns="http://www.w3.org/2000/svg"
 width="709.000000pt" height="709.000000pt" viewBox="0 0 709.000000 709.000000"
 preserveAspectRatio="xMidYMid meet">
<metadata>
Created by potrace 1.14, written by Peter Selinger 2001-2017
</metadata>
<g transform="translate(0.000000,709.000000) scale(0.100000,-0.100000)"
fill="#000000" stroke="none">
<path d="M5124 6680 c-122 -49 -309 -593 -414 -1201 -108 -631 -162 -1368
-177 -2400 l-6 -477 -86 -26 c-47 -14 -124 -33 -171 -41 -130 -24 -398 -21
-439 4 -8 6 -2 32 22 97 187 490 323 1152 402 1954 21 215 38 1008 31 1474 -5
379 -6 391 -28 435 -32 64 -79 94 -140 88 -62 -5 -96 -29 -119 -82 -16 -37
-21 -83 -29 -272 -5 -125 -10 -329 -10 -453 -1 -1136 -152 -2293 -396 -3032
-40 -123 -29 -119 -134 -48 -67 45 -141 123 -168 176 -11 21 -25 65 -32 96
-15 74 -55 118 -106 118 -46 0 -87 -22 -102 -55 -29 -64 -3 -207 57 -311 56
-96 188 -221 304 -289 l48 -27 -42 -77 c-114 -212 -300 -401 -463 -471 -158
-67 -419 -49 -601 42 -297 149 -555 531 -691 1025 -85 312 -89 339 -89 723 0
384 7 452 69 706 64 259 147 460 258 622 29 42 107 131 173 197 130 130 205
180 321 210 121 31 285 14 427 -45 304 -126 551 -497 589 -885 13 -135 -2
-355 -32 -465 -46 -167 -158 -333 -269 -398 -41 -24 -54 -27 -121 -24 -167 7
-157 8 -189 -22 -38 -36 -46 -74 -27 -120 19 -47 63 -72 149 -87 428 -72 778
419 754 1056 -15 375 -159 718 -406 966 -147 147 -270 219 -475 274 -243 65
-419 48 -634 -62 -403 -205 -707 -659 -840 -1253 -48 -213 -62 -328 -69 -575
-9 -376 13 -574 101 -897 51 -186 97 -303 196 -503 109 -219 190 -335 335
-480 205 -205 379 -291 655 -325 296 -36 515 19 737 186 148 111 305 295 407
477 26 48 52 87 57 87 5 0 51 -7 101 -16 64 -12 154 -17 288 -18 197 0 215 2
416 51 21 5 22 0 28 -119 58 -1027 221 -1566 523 -1731 142 -77 302 -75 463 6
79 39 102 69 107 139 5 65 -17 112 -66 145 -43 29 -84 29 -192 1 l-85 -22 -45
25 c-91 50 -171 222 -218 474 -48 255 -92 628 -110 940 -6 99 -13 212 -16 251
l-5 70 47 34 c131 94 308 294 419 471 204 329 365 912 458 1664 55 438 54 515
-4 568 -58 52 -142 24 -187 -63 -29 -56 -42 -122 -88 -420 -69 -448 -181 -966
-266 -1225 -47 -143 -137 -334 -212 -448 -60 -91 -154 -207 -168 -207 -19 0
-3 1572 21 1970 37 614 122 1099 265 1510 20 57 45 121 56 141 45 89 30 167
-36 195 -38 16 -51 16 -81 4z"/>
</g>
</svg>
